<?xml version="1.0" encoding="UTF-8"?>
<svg id="Capa_2" data-name="Capa 2" xmlns="http://www.w3.org/2000/svg" viewBox="0 0 114.56 81.05">
  <defs>
    <style>
      .cls-1 {
        fill: #f8f8f8;
      }
    </style>
  </defs>
  <g id="Capa_28" data-name="Capa 28">
    <path class="cls-1" d="M55.67,81.05c-2.45-.05-4.92-1.07-6.42-2.98-1.58-2-1.91-4.97-.48-7.14.48-.72,1.15-1.35,1.98-1.59,1.15-.34,2.45.21,2.72,1.43.19.83-.06,1.7-.33,2.51s-.55,1.66-.43,2.5c.18,1.3,1.36,2.33,2.66,2.58,2.02.39,3.92-.8,5.16-2.28,2.43-2.92,3.52-6.67,4.63-10.22,1.23-3.94,1.63-8.8,3.51-12.48-1.58,3.08-3.69,5.9-6.22,8.28-1.42,1.34-3.09,2.59-5.04,2.73-3.53.24-4.46-3.28-4.44-6.06.04-6.46,1.45-12.88,3.72-18.94.89-2.38,1.96-4.79,3.82-6.54,1.86-1.75,4.68-2.71,7.06-1.75-5.15,7.45-8.22,16.31-8.77,25.32-.15,2.5,1.52,3.48,3.38,1.56,6.02-6.21,8.69-14.62,11.56-22.54.37-1.01.75-2.05,1.46-2.87,1.82-2.1,5.06-2.04,7.85-1.82-2.07,2.3-3.22,5.26-4.2,8.19-2.61,7.77-4.34,15.79-6.61,23.66-1.2,4.17-2.59,8.38-5.15,11.9-2.51,3.45-6.56,6.42-11,6.54-.14,0-.27,0-.41,0Z"/>
    <path class="cls-1" d="M100.26,64.4c-1.37,0-2.31-.68-2.81-2.04-.51-1.36-.76-3.03-.76-5.02,0-1.81.13-3.6.4-5.36.13-.79.27-1.6.43-2.42.15-.82.34-1.69.56-2.59-.75,1.76-1.53,3.46-2.35,5.1-.82,1.64-1.65,3.09-2.48,4.34-1.41,2.21-2.9,4.05-4.47,5.53-1.57,1.47-3.12,2.21-4.67,2.21-1.24,0-2.29-.58-3.15-1.74-.86-1.16-1.29-3.19-1.29-6.08s.4-5.98,1.19-9.1c.79-3.12,1.91-6.02,3.34-8.72,1.43-2.69,3.13-4.86,5.1-6.51,1.96-1.64,4.12-2.47,6.46-2.47.75,0,1.57.14,2.45.43.88.28,1.7.81,2.45,1.57.75.77,1.26,1.83,1.52,3.19.04-.11.1-.2.16-.26.07-.06.12-.11.17-.17.62-1.25,1.32-2.3,2.12-3.15.79-.85,1.68-1.28,2.65-1.28.49,0,1.17.03,2.05.08.88.06,1.52.06,1.92,0-.22.23-.52.68-.9,1.36-.38.68-.72,1.38-1.03,2.08-.31.71-.55,1.26-.73,1.66-1.19,2.95-2.27,5.87-3.25,8.76-.97,2.89-1.72,5.67-2.25,8.33-.13.57-.22,1.09-.26,1.57-.04.48-.07.95-.07,1.4,0,1.47.37,2.21,1.13,2.21.71,0,1.59-.57,2.65-1.7,1.55-1.59,2.9-3.57,4.07-5.95,1.17-2.38,2.2-4.68,3.08-6.89.18-.4.33-.6.46-.6.26,0,.4.48.4,1.45,0,.45-.06.96-.16,1.53-.11.57-.28,1.11-.5,1.62-.62,1.36-1.42,3.03-2.42,5.02-.99,1.99-2.11,3.93-3.34,5.83-1.24,1.9-2.53,3.5-3.87,4.8-1.35,1.3-2.68,1.96-4.01,1.96ZM87.08,57c.13.06.33.08.6.08.84,0,1.74-.45,2.72-1.36.97-.91,1.94-2.08,2.91-3.53.97-1.45,1.83-2.9,2.58-4.38,1.94-3.97,3.38-6.94,4.31-8.93.93-1.98,1.46-3.12,1.59-3.4-.22-.96-.61-1.67-1.16-2.13-.55-.45-1.2-.68-1.95-.68-.97,0-2,.34-3.08,1.02-1.08.68-2,1.5-2.75,2.47-1.15,1.47-2.24,3.37-3.28,5.7-1.04,2.33-1.88,4.62-2.52,6.89-.64,2.27-.96,4.17-.96,5.7,0,1.42.33,2.27.99,2.55Z"/>
    <path class="cls-1" d="M17.35,31.76c-3.43,2.6-4.92,6.84-5.57,10.96-.57,3.93-.63,7.96.02,11.81,1.52,6.38,13.1,4.56,17.93,2.8,16.17-5.65,25.76-25.32,14.87-40.25-7.04-10.19-21.41-14.5-31.81-7.45-6.75,4.41-9.79,13.34-6.03,20.66,1.71,3.5,4.65,6.25,8.36,7.17,2.72.74,6.1.82,8.54-.92,2.94-1.81,2.36-6.46-1.15-7.1-2.1-.39-3.74.97-5.17,2.31h0ZM15.41,29.29c6-4.55,14.68,2.02,9.48,8.51-6.83,7.83-18.84,3.36-22.73-5.21C-5.26,17.38,7.55.18,23.78,0c15.39-.35,28.78,12.98,30.2,27.96,1.16,14.93-8.16,29.44-21.5,35.88-8.39,3.86-20.76,5.59-26.92-3.13-5.99-9.97,2.1-24.63,9.85-31.42h0Z"/>
  </g>
</svg>