<?xml version="1.0" encoding="UTF-8"?>
<svg xmlns="http://www.w3.org/2000/svg" version="1.1" viewBox="0 0 500 500">
  <!-- Generator: Adobe Illustrator 29.0.1, SVG Export Plug-In . SVG Version: 2.1.0 Build 192)  -->
  <defs>
    <style>
      .st0 {
        fill: #83378d;
      }
    </style>
  </defs>
  <g id="_x31_">
    <path class="st0" d="M210.7,119.7c-8-2.9-12.3-12.3-10.6-20.7,1.2-6.5,10.8-5,9.9,1.6-.1.9-.5,1.6-1,2.3-1.6,2.2-2.5,5.1-2.3,7.9.2,3,1.5,6.3,3.9,8.9h0Z"/>
  </g>
  <g id="_x32_">
    <path class="st0" d="M154.1,195.2c3.7-16.4,10.5-32.3,21.7-45.3,4-4.6,8.8-8.9,14.8-12.2,4.3-2.4,9.8-.9,12.2,3.4,2.4,4.3.9,9.8-3.4,12.2-.7.4-1.5.7-2.2.9-4,1-8.3,3.2-12.3,5.9-4,2.7-7.8,6.1-11.4,9.8-7.2,7.6-13.2,16.5-18,25.9-.4.8-1.8.4-1.5-.5h0Z"/>
  </g>
  <g id="_x33_">
    <path class="st0" d="M166.5,302.1c-30.7-56.7,2.2-122.5,59.6-145.5,15-5.4,23.6,15.7,9.1,22.3-22.6,5.6-42.5,18.1-56.5,36.8-18.8,24.3-23,57.5-12.1,86.3h0Z"/>
  </g>
  <g id="_x34_">
    <path class="st0" d="M196.8,127.6c4.5,4.9,12.3,7.4,18.3,4.1,2.2-1.3,3-3.9,4.5-5.9,1.9-2.6,5.8-1.9,8.2-.4,7.7,4.6,12.8,12.3,17.3,19.8,10.7,18.6,12.5,41.6,5.9,62-2.1,6.8-5.1,13.4-8.6,19.7-13.7,23.8-36.8,41-48.7,65.4-5,10.5-7.7,22.5-2.6,33.2,7.3,15,25.8,23.5,42,19.9,13.1-2.2,17,16.5,4,19.7-24.7,4.1-51.2-9.6-60.9-33-6.4-14.8-2.4-32.8,5.3-46.1,10.5-18.6,27.1-33.1,41-48.1,9.2-9.7,16.6-20.6,21.3-33,7.3-18.5,6.9-39.9-2.1-57.9-3.7-7.4-8.2-14.9-15-19.7-6.9-4.4-6.1,3.1-11,5.5-6.6,3.2-14.5.2-18.9-5.2h0Z"/>
  </g>
  <g id="_x35_">
    <path class="st0" d="M246.9,241.3c15.6,27,11.5,60.1-9,83.4-12.3,14.5-33.3-2.6-21.5-17.5,1-1.1,2.2-2.1,3.4-2.8,8.3-4.9,15.6-12.4,20-21.1,1.7-3.2,3.1-6.8,4.1-10.4,1.1-3.7,1.7-7.5,2-11.4.5-6.3,0-12.8-1.3-19.2-.3-1.4,1.6-2.2,2.4-.9h0Z"/>
  </g>
</svg>